<?xml version="1.0" standalone="no"?>
<!DOCTYPE svg PUBLIC "-//W3C//DTD SVG 20010904//EN"
 "http://www.w3.org/TR/2001/REC-SVG-20010904/DTD/svg10.dtd">
<svg version="1.0" xmlns="http://www.w3.org/2000/svg"
 width="512.000000pt" height="512.000000pt" viewBox="0 0 512.000000 512.000000"
 preserveAspectRatio="xMidYMid meet">
<metadata>
Created by potrace 1.11, written by Peter Selinger 2001-2013
</metadata>
<g transform="translate(0.000000,512.000000) scale(0.100000,-0.100000)"
fill="#000000" stroke="none">
<path d="M2747 5063 c-114 -355 -202 -962 -249 -1708 -17 -271 -17 -1402 0
-1670 33 -513 79 -890 143 -1179 20 -91 31 -118 57 -148 21 -25 93 -24 123 1
l24 19 -5 254 c-8 422 -4 1063 9 1233 47 645 145 965 335 1090 75 50 137 57
209 21 123 -60 157 -165 222 -690 43 -344 65 -499 74 -508 4 -4 41 50 83 120
42 70 87 137 100 149 12 11 52 33 88 48 36 15 107 52 158 81 370 218 679 577
858 997 l42 100 -15 51 c-47 163 -173 435 -276 598 -185 293 -469 583 -758
774 -332 218 -754 370 -1140 409 l-67 6 -15 -48z"/>
<path d="M1760 4991 c-932 -311 -1601 -1110 -1735 -2073 -25 -185 -24 -202 27
-310 58 -121 111 -199 182 -266 78 -74 152 -106 239 -105 133 3 245 60 442
227 57 49 128 60 185 28 53 -29 66 -55 114 -222 70 -242 153 -446 179 -437 15
4 20 80 42 527 14 297 22 428 41 660 5 64 32 317 39 375 33 246 43 310 81 505
64 336 158 680 266 970 61 166 62 170 52 170 -5 -1 -74 -22 -154 -49z"/>
<path d="M2186 4759 c-37 -29 -57 -72 -109 -236 -99 -305 -189 -706 -232
-1028 -3 -27 -8 -61 -10 -75 -2 -14 -11 -92 -20 -175 -9 -82 -18 -168 -20
-190 -11 -94 -39 -582 -50 -875 -17 -429 -43 -608 -101 -707 -29 -51 -97 -98
-153 -108 -92 -15 -209 51 -299 171 -64 84 -167 292 -218 437 l-37 107 -31
-20 c-186 -123 -414 -169 -591 -121 -83 23 -181 72 -235 117 -17 15 -33 25
-35 23 -8 -8 75 -309 113 -409 256 -680 772 -1212 1437 -1484 246 -100 478
-154 784 -182 70 -6 74 -5 67 12 -66 171 -155 585 -196 914 -6 47 -13 103 -15
125 -45 357 -76 975 -75 1500 2 759 50 1445 140 1981 35 204 35 208 14 228
-23 24 -95 21 -128 -5z"/>
<path d="M5071 2673 c-51 -84 -169 -238 -259 -340 -159 -178 -406 -370 -621
-480 l-106 -55 -158 -262 c-88 -143 -170 -273 -185 -288 -52 -56 -144 -60
-204 -10 -90 76 -159 357 -232 950 -32 260 -44 303 -65 225 -64 -239 -97 -750
-88 -1368 6 -367 31 -952 42 -963 8 -8 268 80 384 129 287 124 563 311 791
539 393 394 638 883 725 1450 18 122 32 489 19 512 -7 13 -16 5 -43 -39z"/>
</g>
</svg>
