<svg xmlns="http://www.w3.org/2000/svg" viewBox="0 0 692.1 714.2"><path fill="#84B841" d="M339.7 20.4s244.6-16 336.9 235.9c29.8 93.6 41.6 331.2-208.8 437-9.1 4.2-108.7 32.2-119.7 13.4-22.3-28.4-80.6-409.5-8.4-686.3z"/><path fill="#2E6294" d="M334.9 20.4C257.6 20.4 15.7 78.5.2 363.3c-4.2 105.1 61 336.5 339.5 350.9-17.1-138.1-72.8-265.7-4.8-693.8z"/><path fill="#FFF" d="M293.1 23.9s-45.8 49.7-61.3 192.8c-22.5 164.7-25.5 198.7-37.7 249.7 0 0-2.9 14.1-5.9 0 0 0-13.7-60.8-27.6-70.3 0 0-16.6-19.3-35.7 23.8 0 0-7 18.6-27.9 22.5 0 0-79.9 14.6-96.8-81.6-.2 43.5 2.5 50.8 2.5 50.8s22.6 57.4 93.9 51.8c0 0 32.8-2.8 49-39.4 0 0 3.8-9.2 5.6.2 0 0 17.7 64.3 30.3 76.8 0 0 11.4 15 22.9-3.7 28.8-35 45.6-234 50.8-276.3 9.1-66.3 19.3-131.2 61.1-186.9 5.1 25.1-66.1 412.2 16.9 679.7 0 0 21.6.7 41-1 0 0 12.7-27.1 13.5-193.3 0 0 4.1-133.3 19.7-155.5 0 0 2.7 94.7 16.5 145.1 0 0 11.1 34 31.8 9.6 0 0 8.2-13.4 9.4-22.5 0 0 104.9-41 138.4-71.5 44.9-37.3 82.1-119.2 75.2-162.4 0 0-1.2-6.7-11.9-31.4 0 0 20.4 92.7-61 164.4 0 0-36.4 35.1-142.6 76.1 0 0-18 3.2-18.8 26.6 0 0-3.3 5.5-4.8-1.5-7.7-39-9.1-79.4-12.6-128.2 0 0-5.4-58.8-31.8-24-1.2 4.5-32.3 27.1-29.5 226.8 0 0-1.7 119.1-9.5 126.6-4.6.8-35.8-72.7-37.5-307.9 1.9-65.8.3-193.1 33.8-370.4-.2.3-31.2-.6-59.4 4.5z"/><radialGradient id="a" cx="399.938" cy="326.613" r="316.066" fx="342.035" fy="216.758" gradientTransform="matrix(1.0528 0 0 .9622 -75.443 15.744)" gradientUnits="userSpaceOnUse"><stop offset=".19" stop-color="#FFF"/><stop offset=".94" stop-color="#FFF" stop-opacity="0"/></radialGradient><path opacity=".5" fill="url(#a)" d="M662.4 207.3c93.8 325.4-181.2 459.9-300.7 452.4-83.4 1.7-312.3-79.6-351.5-292.3C11.4 386.6-23.4 42 311.4 2.5c103.5-14.1 300.2 29 351 204.8z"/></svg>