<svg id="Layer_1" data-name="Layer 1" xmlns="http://www.w3.org/2000/svg" viewBox="0 0 1022 198.23"><defs><style>.cls-1{fill:#fff;}</style></defs><title>circonus-logo-one-color-for-dark-background</title><path class="cls-1" d="M973.08,142.53c-5.28-.18-10.69,0-16.06-.64a120.1,120.1,0,0,1-15.42-2.8c-6.84-1.65-10.69-6.42-11.84-13.35-.6-3.49-.69-7.07-1-10.61-.09-1.14.37-1.56,1.51-1.56,3.31.05,6.57.1,9.87,0,1.33,0,1.61.55,1.65,1.75a47.46,47.46,0,0,0,.6,6.06c.73,4.4,3.35,7,7.71,7.57s8.77,1.1,13.12,1.28q9.72.35,19.42,0a139.84,139.84,0,0,0,15.14-1.51c6.29-.92,7.85-5.74,7.44-11.43a17.63,17.63,0,0,0-.55-3.07c-.69-2.71-2.3-4.64-5.1-5a90.21,90.21,0,0,0-10.51-1.24c-7.34-.28-14.68-.09-22-.41s-14.82-1.06-22-3.35c-8.17-2.62-12.62-8.22-13.49-16.89a41.16,41.16,0,0,1,.32-11.57c1.33-7.29,5.42-12,12.48-13.44a124.48,124.48,0,0,1,16.75-2.21c6.89-.41,13.77-.5,20.66-.32a74.18,74.18,0,0,1,19.91,2.76c8.63,2.61,12.35,6.6,13.86,17.3.28,2,.23,4,.37,6,.05,1-.28,1.43-1.29,1.43h-10c-1,0-1.28-.42-1.38-1.38a36.87,36.87,0,0,0-.69-5.74c-.78-3.58-2.89-6.06-6.56-6.7a74.1,74.1,0,0,0-10.19-1.28q-11.56-.42-23.13-.32a60.17,60.17,0,0,0-10.55,1c-3.86.73-7,2.89-7.62,7.2-.92,6.2.51,12.07,8.08,13.82a69.85,69.85,0,0,0,11.7,1.56c6.38.32,12.76.09,19.09.41s13.91,1,20.84,1.88,11.42,5.42,13.08,12.53a36.29,36.29,0,0,1,.32,15.42c-1.65,8.12-6.7,12.9-14.46,14.46a131.19,131.19,0,0,1-15,1.93c-5,.41-10,.41-15,.59Z"/><path class="cls-1" d="M911,92.65c0-10.05,0-20.06,0-30.11,0-1.42-.36-2-1.83-1.93-3,.1-6,0-9,0-2,0-2,0-2,2.07v51.4a53.66,53.66,0,0,1-.32,7.06c-.6,4.32-2.2,7.3-7,7.9a93.44,93.44,0,0,1-11.75,1.14c-11.56.1-23.13.6-34.65-.87-4.86-.64-7.2-2.48-8.16-6.93a19.94,19.94,0,0,1-.42-4.22q0-27.81,0-55.67c0-1.51-.41-2-1.92-2-3,.09-6,0-9,0-2.11,0-2.11,0-2.11,2.15,0,18.77,0,37.54,0,56.27a54.25,54.25,0,0,0,1,9.17c1.19,6.8,4.91,11.25,11.88,12.12,5.83.73,11.7,1.7,17.58,1.84,12.89.27,25.79.68,38.64-.92A76.32,76.32,0,0,0,902.49,139a9.38,9.38,0,0,0,5.92-5.37,26.16,26.16,0,0,0,2.53-11.24c.09-9.92,0-19.87,0-29.79Z"/><path class="cls-1" d="M789.63,128.31c-.41-.37-.87-.69-1.24-1.06l-7.71-8L725.8,61.9a3.76,3.76,0,0,0-2.94-1.29q-7.11.11-14.18,0c-1.29,0-1.7.37-1.7,1.7q0,38.68,0,77.38c0,1.37.51,1.69,1.74,1.65,2.9-.05,5.74,0,8.63,0s2.39,0,2.39-2.39V76.54c0-.74.09-1.47.18-2.66.87.78,1.42,1.24,1.88,1.74l27.49,28.73,34,35.52a3.53,3.53,0,0,0,2.76,1.47q7.71-.09,15.42,0c1.24,0,1.6-.46,1.56-1.65,0-3.67,0-7.35,0-11q0-33,0-66c0-1.6-.46-2.06-2-2-2.93.14-5.87,0-8.81,0-2.2,0-2.2,0-2.2,2.25v65.21Z"/><path class="cls-1" d="M660,141.61a79.59,79.59,0,0,0,13.63-2.24c7.57-2,12.57-7,13.81-15.19a85.78,85.78,0,0,0,1.15-13c0-9.64-.23-19.32-.6-29a22.13,22.13,0,0,0-3.71-12.16c-3.17-4.45-7.67-6.7-12.76-7.9-8.45-2-17.07-2.29-25.7-2.43-7.34-.14-14.69.14-22,.6A98,98,0,0,0,608,62.59C600,64.47,594.62,69.43,593.15,78a64,64,0,0,0-1.06,10.6c0,11.38-.64,22.77.83,34.15,1,7.8,4.91,13.21,12.12,16,5.73,2.21,11.79,2.76,17.8,3.17s11.61.41,19,.6C646.84,142.3,653.41,142.16,660,141.61ZM606.28,82.18a18.43,18.43,0,0,1,.78-2.89,7,7,0,0,1,5.69-5.37,72.44,72.44,0,0,1,9.73-1.56c7.2-.41,14.45-.69,21.7-.64s15.7.28,23.41,2.11c3.26.78,5.46,2.57,6.1,5.88a77.73,77.73,0,0,1,1.84,12.07c.41,8.85.59,17.71-.88,26.52a33.19,33.19,0,0,1-1.33,5,6.29,6.29,0,0,1-4.81,4.64c-4.09.78-8.17,1.6-12.3,2a143.37,143.37,0,0,1-15.38.55c-6.19,0-12.39-.41-18.58-.82a83.71,83.71,0,0,1-8.82-1.29c-3.85-.64-6.1-3.12-6.83-6.93A93.85,93.85,0,0,1,605,111c-.28-3.3,0-6.6,0-9.91-.23,0,.55-12.62,1.24-18.91Z"/><path class="cls-1" d="M547.54,141.66A51.22,51.22,0,0,0,561.4,139a13.82,13.82,0,0,0,8.35-8.07c2.3-5.51,2.71-11.39,2.8-17.26,0-1.1-.55-1.29-1.46-1.29-3.31,0-6.57,0-9.87,0-1.29,0-1.56.46-1.7,1.75a60.11,60.11,0,0,1-1.28,9,7.56,7.56,0,0,1-6.8,6,136.11,136.11,0,0,1-13.63,1.24q-11.32.2-22.62-.32a67,67,0,0,1-10.74-1.83,6.59,6.59,0,0,1-5.19-5.05,42.54,42.54,0,0,1-1.6-7.8c-.42-6.06-.69-12.17-.6-18.22a109.31,109.31,0,0,1,1.24-14.23c1-6.47,3-8.63,9.22-9.5s12.12-1.24,18.22-1.56a104.12,104.12,0,0,1,10.6.23c4.59.23,9.23.46,13.82,1,5.6.6,7.94,2.89,8.81,8.36a48,48,0,0,1,.6,6.56c0,1.42.46,1.79,1.79,1.79,3.25-.09,6.47-.05,9.73,0,1.14,0,1.6-.41,1.51-1.56a105.27,105.27,0,0,0-1-10.79c-2.06-10.78-6.15-13.58-14.59-15.46-7.58-1.65-15.29-2-23-2.11-6.56-.14-13.13.27-19.69.55a62.15,62.15,0,0,0-15.42,2.66c-6.19,1.88-10.05,6-12,12.21S484.3,89,484,96a126.7,126.7,0,0,0,.27,13.36,131.2,131.2,0,0,0,1.56,13.4c.78,4.31,2.16,8.44,5.23,11.75s7.81,4.72,12.26,5.73c8.53,1.93,17.21,2,25.88,2.21Q538.4,142.21,547.54,141.66Z"/><path class="cls-1" d="M459.26,106a14.14,14.14,0,0,0,6.06-8.44,40.58,40.58,0,0,0-.09-21.43c-1.84-6.52-5.46-11.75-12-14a27.76,27.76,0,0,0-8.76-1.47c-22.44-.14-44.93,0-67.37-.09-1.15,0-1.66.32-1.66,1.6q.06,38.79,0,77.52c0,1.24.37,1.65,1.61,1.65,3.12-.05,6.29-.09,9.41,0,1.56,0,2-.37,2-2-.09-8.22-.05-16.38-.05-24.6,0-2.11,0-2.11,2.11-2.11h51.36a14.67,14.67,0,0,1,3.67.37c4.91,1.28,8.58,3.81,8.3,10.28-.22,5.46,0,10.92-.09,16.38,0,1.24.37,1.65,1.61,1.65,3.17,0,6.38,0,9.54,0,1.2,0,1.66-.32,1.66-1.6-.05-6.61-.05-13.22-.05-19.87a12.51,12.51,0,0,0-3.17-8.49c-1.51-1.66-3.3-3.08-5.09-4.69Zm-69.11-5.28c-1.61,0-2-.5-2-2.06q.09-12,0-24c0-1.6.46-2.06,2-2.06,16.66,0,33.32,0,50,.09a33.43,33.43,0,0,1,7.11,1A7.37,7.37,0,0,1,452.66,79a24.71,24.71,0,0,1-.05,15.42,8.31,8.31,0,0,1-7.16,5.87,32,32,0,0,1-4.59.37H416.17c-8.63,0-17.3-.05-26,0Z"/><path class="cls-1" d="M342.28,139.27c0,2.07,0,2.07,2.06,2.07,3,0,6-.09,9,0,1.56,0,2-.46,2-2.07-.09-9,0-18.08,0-27.08V62.77c0-2.11,0-2.16-2.16-2.16-3,0-6,.1-8.95,0-1.51,0-1.93.46-1.93,2q.07,19.21.05,38.46c0,12.85,0,25.52,0,38.27Z"/><path class="cls-1" d="M292.71,141.94c5.23-.51,10.46-1.24,15.65-2.21,6.24-1.14,10.1-5.23,11.89-11.42A53.69,53.69,0,0,0,322,113.53c0-1.06-.55-1.2-1.38-1.2h-10c-1,0-1.33.33-1.38,1.38-.09,2.11-.32,4.18-.59,6.24-.74,5.65-3,8.26-8.49,9.18a83.63,83.63,0,0,1-12.53,1.15c-7.62.09-15.19.05-22.81-.32a72.93,72.93,0,0,1-10.88-1.84,6.29,6.29,0,0,1-5.14-5.18,90.44,90.44,0,0,1-2.06-13,159.43,159.43,0,0,1,0-17.76,94.12,94.12,0,0,1,1.79-12.26c.64-3.35,2.75-5.27,6-6.14,6.8-1.79,13.73-1.79,20.61-2.07A107.53,107.53,0,0,1,286.1,72c4.55.22,9.14.45,13.63,1,5.74.64,8.08,3.21,8.86,9,.28,2.06.46,4.17.6,6.24,0,1,.41,1.37,1.37,1.37h10c1,0,1.47-.32,1.37-1.37-.36-4-.41-8-1.1-11.89-1.19-6.75-4.36-12-11.38-13.77l-2.84-.73C299,60.2,291.15,60,283.35,59.74c-5-.18-10.05.14-15.1.28a89.82,89.82,0,0,0-17.35,2.25c-8,1.79-13.31,6.51-15,14.82a119.24,119.24,0,0,0-2.25,16.61c-.32,6.24,0,12.49.23,18.73a54.19,54.19,0,0,0,2.8,15.55c1.65,4.87,4.55,8.63,9.41,10.38a59.06,59.06,0,0,0,8.26,2.38c8,1.65,16.11,1.7,24.23,1.84,4.78-.23,9.46-.23,14.09-.64Z"/><path class="cls-1" d="M106.76,4.65C105.7,7.72,96.43,36.51,96.43,100c0,41.67,3.54,65.26,6.51,77.72.91,3.79,2.35,4.45,4.37,4.31a3,3,0,0,0,2.32-1.23,4.68,4.68,0,0,0,.72-3c-.61-12.34-.85-24-.72-34.78.56-46.62,8-56.26,14.4-59.45a7.4,7.4,0,0,1,6.88.07c5,2.72,6.08,10,8,26.31.72,6.1,1.52,12.86,2.67,19l5.64-9.38a5.89,5.89,0,0,1,3.19-2.57c.07,0,8-2.83,17.15-10.6a82,82,0,0,0,22.82-32l.79-1.92A95.52,95.52,0,0,0,107,3.94Z"/><path class="cls-1" d="M5.89,97.11c1.59,3.55,6,12,13,13.75,5.38,1.37,11.91-1.48,19.4-8.46a5.94,5.94,0,0,1,9.82,3,134.73,134.73,0,0,0,4.27,13.78c.88,2.36,1.78,4.48,2.67,6.29a1.1,1.1,0,0,0,1,.69c.18,0,.52-.07.58-1,.55-10.86.64-12.1.67-12.38,0-.11,0-.45.07-1.53V111C58.43,84.75,60.1,45.1,75.78,6.62A95.5,95.5,0,0,0,4.2,93.31Z"/><path class="cls-1" d="M84.56,100c0-31.9,2.13-59.15,6.33-81a2.26,2.26,0,0,0-.31-1.88,2.68,2.68,0,0,0-2-.9c-2.49-.16-4.21,1.16-5.22,4C71.65,53.38,70.26,86.09,69.25,110l-.07,1.56c-.8,18.73-1.16,27.27-6.28,30.83a7.78,7.78,0,0,1-7,1C48,140.78,42.44,128,39,117c-8,5.42-15.77,7.22-23.1,5.35a25.2,25.2,0,0,1-10.22-5.52,95.49,95.49,0,0,0,89.75,77.65C94.26,191.68,84.56,166.21,84.56,100Z"/><path class="cls-1" d="M156.36,127.37l-11.69,19.44a5.93,5.93,0,0,1-10.52-.68c-4-9.09-5.59-22.77-7-34.84-.28-2.39-.6-5.09-.95-7.7,0-.16-.1-.43-.4-.43h0c-.5,0-.62.06-.77.65-2.12,8.73-3.3,22-3.51,39.29-.28,23.4,1.48,47.45,1.55,48.46v.09A95.52,95.52,0,0,0,195,99.11q0-3.42-.24-6.8C181,115.4,162.47,124.78,156.36,127.37Z"/></svg>